<svg width="152" height="46" viewBox="0 0 152 46" fill="none" xmlns="http://www.w3.org/2000/svg">
  <path d="M40.1556 17.042L40.161 17.0598L40.167 17.0773C41.4911 20.9213 41.4975 25.0967 40.1852 28.9447L40.1843 28.9473C39.3018 31.5584 37.8287 33.9308 35.8798 35.8797C33.931 37.8286 31.5589 39.3015 28.948 40.1841C27.0307 40.8307 25.0213 41.1625 22.9979 41.1667L22.9936 41.1667C20.9551 41.1797 18.9295 40.8421 17.0054 40.1686L16.9797 40.1597L16.9536 40.1521C16.2868 39.9587 15.5884 39.8988 14.8985 39.9759C14.2145 40.0524 13.5522 40.2619 12.9488 40.5927C11.7338 41.2085 10.3386 41.3694 9.01525 41.0465C8.06728 40.7755 7.20388 40.2674 6.50658 39.5701L5.79947 40.2772L6.50658 39.5701C5.80653 38.8701 5.29721 38.0026 5.02699 37.0502C4.66455 35.7129 4.80093 34.2896 5.41034 33.0457C5.7478 32.4298 5.95892 31.7527 6.0312 31.054C6.10436 30.3468 6.03378 29.6321 5.8237 28.9529L5.81923 28.9384L5.81433 28.9241C4.49614 25.0781 4.49614 20.9027 5.81433 17.0567L5.81479 17.0554C6.70707 14.4398 8.19226 12.0662 10.1542 10.1199C12.1162 8.1737 14.5018 6.70768 17.1244 5.83651L17.1244 5.83655L17.1334 5.83348C20.9794 4.51528 25.1548 4.51528 29.0008 5.83348L29.0234 5.84124L29.0464 5.84791C29.7132 6.04132 30.4116 6.10119 31.1016 6.02407C31.7855 5.94763 32.4478 5.73808 33.0512 5.4073C34.2662 4.79153 35.6615 4.63058 36.9848 4.95349C37.9328 5.22452 38.7961 5.73259 39.4935 6.42989L40.2006 5.72279L39.4935 6.4299C40.1935 7.12993 40.7028 7.99737 40.973 8.94973C41.3353 10.2862 41.1993 11.7085 40.5909 12.9519C40.2504 13.5654 40.0358 14.2407 39.9596 14.9384C39.8824 15.6456 39.9491 16.3612 40.1556 17.042ZM23 14.4167H24V13.4167V9.58333V8.58333H23C19.1765 8.58333 15.5095 10.1022 12.8059 12.8059C10.1022 15.5095 8.58335 19.1765 8.58335 23V24H9.58335H13.4167H14.4167V23C14.4167 20.7236 15.321 18.5404 16.9307 16.9307C18.5404 15.321 20.7236 14.4167 23 14.4167Z" fill="#FFE000" stroke="black" stroke-width="2"/>
  <path d="M56.0084 20V3.21H66.0824V5.809H58.8144V9.949H61.2754C62.41 9.949 63.3837 10.156 64.1964 10.57C65.0244 10.984 65.6684 11.5667 66.1284 12.318C66.5884 13.0693 66.8184 13.951 66.8184 14.963C66.8184 15.975 66.5884 16.8567 66.1284 17.608C65.6684 18.3593 65.0244 18.9497 64.1964 19.379C63.3837 19.793 62.4177 20 61.2984 20H56.0084ZM58.8144 17.539H61.2984C62.111 17.539 62.7474 17.309 63.2074 16.849C63.6674 16.389 63.8974 15.768 63.8974 14.986C63.8974 14.1887 63.6674 13.56 63.2074 13.1C62.7474 12.64 62.111 12.41 61.2984 12.41H58.8144V17.539ZM73.5024 20.23C72.199 20.23 71.1717 19.885 70.4204 19.195C69.669 18.505 69.2934 17.5773 69.2934 16.412C69.2934 15.17 69.715 14.2117 70.5584 13.537C71.417 12.847 72.6207 12.502 74.1694 12.502H77.2054V11.444C77.2054 10.8307 77.006 10.3553 76.6074 10.018C76.2087 9.68067 75.649 9.512 74.9284 9.512C74.269 9.512 73.7247 9.65 73.2954 9.926C72.8814 10.202 72.6514 10.57 72.6054 11.03H69.8684C69.9144 10.2327 70.152 9.54267 70.5814 8.96C71.026 8.37733 71.624 7.925 72.3754 7.603C73.142 7.281 74.0237 7.12 75.0204 7.12C76.5844 7.12 77.8187 7.50333 78.7234 8.27C79.628 9.03667 80.0804 10.087 80.0804 11.421V20H77.2974V17.861H76.8374L77.3204 17.171C77.3204 18.1063 76.9754 18.85 76.2854 19.402C75.5954 19.954 74.6677 20.23 73.5024 20.23ZM74.4454 18.091C75.258 18.091 75.9174 17.884 76.4234 17.47C76.9447 17.056 77.2054 16.527 77.2054 15.883V14.342H74.2384C73.5944 14.342 73.0884 14.5107 72.7204 14.848C72.3524 15.17 72.1684 15.607 72.1684 16.159C72.1684 16.7723 72.3677 17.2477 72.7664 17.585C73.1804 17.9223 73.74 18.091 74.4454 18.091ZM83.5674 20V7.35H86.4424V12.226H90.9504V7.35H93.8254V20H90.9504V14.825H86.4424V20H83.5674ZM97.4274 20V7.35H100.302V12.318H102.303L105.385 7.35H108.605L104.787 13.468L108.674 20H105.385L102.303 14.756H100.302V20H97.4274ZM54.6054 43.115V40.493H55.1804C55.7017 40.493 56.1004 40.2477 56.3764 39.757C56.6524 39.251 56.798 38.492 56.8134 37.48L56.9974 26.21H66.2204V43H63.3454V28.809H59.8264L59.6654 37.48C59.65 39.3047 59.2667 40.7 58.5154 41.666C57.764 42.632 56.7137 43.115 55.3644 43.115H54.6054ZM69.7764 43V30.35H72.3754V36.583C72.3754 36.9817 72.3524 37.457 72.3064 38.009C72.2757 38.5457 72.2297 39.0747 72.1684 39.596C72.1224 40.1173 72.061 40.5697 71.9844 40.953L76.4924 30.35H80.0344V43H77.4354V36.767C77.4354 36.353 77.4507 35.893 77.4814 35.387C77.5274 34.881 77.5734 34.3827 77.6194 33.892C77.6807 33.4013 77.7344 32.9873 77.7804 32.65L73.3184 43H69.7764ZM83.0844 43V30.35H86.5344L88.0984 35.111C88.2671 35.6323 88.4051 36.123 88.5124 36.583C88.6351 37.043 88.7117 37.388 88.7424 37.618C88.7884 37.388 88.8574 37.043 88.9494 36.583C89.0567 36.123 89.1947 35.6323 89.3634 35.111L90.8584 30.35H94.3084V43H91.6404V40.838C91.6404 40.2553 91.6481 39.596 91.6634 38.86C91.6941 38.124 91.7247 37.365 91.7554 36.583C91.8014 35.801 91.8397 35.0573 91.8704 34.352C91.9164 33.6313 91.9547 33.0103 91.9854 32.489L90.0074 39.343H87.4314L85.3844 32.535C85.4151 33.0257 85.4534 33.616 85.4994 34.306C85.5454 34.9807 85.5837 35.709 85.6144 36.491C85.6451 37.2577 85.6757 38.0167 85.7064 38.768C85.7371 39.5193 85.7524 40.2093 85.7524 40.838V43H83.0844ZM102.487 43.207C101.414 43.207 100.479 43.0077 99.6814 42.609C98.8841 42.195 98.2707 41.62 97.8414 40.884C97.4121 40.1327 97.1974 39.251 97.1974 38.239V35.111C97.1974 34.099 97.4121 33.225 97.8414 32.489C98.2707 31.7377 98.8841 31.1627 99.6814 30.764C100.479 30.35 101.414 30.143 102.487 30.143C103.576 30.143 104.511 30.35 105.293 30.764C106.091 31.1627 106.704 31.7377 107.133 32.489C107.563 33.225 107.777 34.0913 107.777 35.088V38.239C107.777 39.251 107.563 40.1327 107.133 40.884C106.704 41.62 106.091 42.195 105.293 42.609C104.511 43.0077 103.576 43.207 102.487 43.207ZM102.487 40.7C103.254 40.7 103.844 40.493 104.258 40.079C104.688 39.6497 104.902 39.0363 104.902 38.239V35.111C104.902 34.2983 104.688 33.685 104.258 33.271C103.844 32.857 103.254 32.65 102.487 32.65C101.736 32.65 101.146 32.857 100.716 33.271C100.287 33.685 100.072 34.2983 100.072 35.111V38.239C100.072 39.0363 100.287 39.6497 100.716 40.079C101.146 40.493 101.736 40.7 102.487 40.7ZM111.149 43V30.35H114.024V35.226H118.532V30.35H121.407V43H118.532V37.825H114.024V43H111.149ZM130.069 43.207C128.996 43.207 128.061 43.0077 127.263 42.609C126.466 42.195 125.853 41.62 125.423 40.884C124.994 40.1327 124.779 39.251 124.779 38.239V35.111C124.779 34.099 124.994 33.225 125.423 32.489C125.853 31.7377 126.466 31.1627 127.263 30.764C128.061 30.35 128.996 30.143 130.069 30.143C131.158 30.143 132.093 30.35 132.875 30.764C133.673 31.1627 134.286 31.7377 134.715 32.489C135.145 33.225 135.359 34.0913 135.359 35.088V38.239C135.359 39.251 135.145 40.1327 134.715 40.884C134.286 41.62 133.673 42.195 132.875 42.609C132.093 43.0077 131.158 43.207 130.069 43.207ZM130.069 40.7C130.836 40.7 131.426 40.493 131.84 40.079C132.27 39.6497 132.484 39.0363 132.484 38.239V35.111C132.484 34.2983 132.27 33.685 131.84 33.271C131.426 32.857 130.836 32.65 130.069 32.65C129.318 32.65 128.728 32.857 128.298 33.271C127.869 33.685 127.654 34.2983 127.654 35.111V38.239C127.654 39.0363 127.869 39.6497 128.298 40.079C128.728 40.493 129.318 40.7 130.069 40.7ZM138.731 43V30.35H144.389C145.8 30.35 146.904 30.649 147.701 31.247C148.514 31.8297 148.92 32.6117 148.92 33.593C148.92 34.3597 148.675 34.973 148.184 35.433C147.694 35.893 147.019 36.1383 146.16 36.169V36.307C147.126 36.3223 147.901 36.6137 148.483 37.181C149.066 37.7483 149.357 38.4843 149.357 39.389C149.357 40.493 148.936 41.3747 148.092 42.034C147.264 42.678 146.137 43 144.711 43H138.731ZM141.537 40.838H144.55C145.179 40.838 145.67 40.6847 146.022 40.378C146.375 40.0713 146.551 39.6573 146.551 39.136C146.551 38.5993 146.375 38.1853 146.022 37.894C145.67 37.5873 145.179 37.434 144.55 37.434H141.537V40.838ZM141.537 35.548H144.32C144.888 35.548 145.332 35.4177 145.654 35.157C145.976 34.881 146.137 34.5053 146.137 34.03C146.137 33.5547 145.976 33.1867 145.654 32.926C145.332 32.65 144.888 32.512 144.32 32.512H141.537V35.548Z" fill="black"/>
  </svg>
  